name processed_emg_signals
nRows=60
nColumns=7
 
endheader
time	RGLTMED	RRF	RADDLONG	RBF	RTA	RGM
10.669999999999932	0.0338032485515014	0.0876642255693582	0.8369122929097154	0.0787988834149501	0.1026360443941044	0.0878486910433631
10.679999999999932	0.0338190499774109	0.0873795011104657	0.8393807393150184	0.0786255767836459	0.1025511424086791	0.0877522167096068
10.689999999999932	0.033836905647811	0.087094686928724	0.8418313290244502	0.0784495559334426	0.102468304953077	0.0876685782946377
10.699999999999932	0.0338567610204406	0.0868100773167071	0.8442659039513283	0.0782710469963649	0.1023877276745429	0.0875977423854031
10.709999999999932	0.0338785611064332	0.0865259630188116	0.8466862577896339	0.0780902787139976	0.1023095954597546	0.0875396629789928
10.719999999999931	0.0339022505166351	0.0862426306669508	0.8490941281488161	0.07790748188718	0.102234081987633	0.0874942813150742
10.729999999999931	0.0339277735004632	0.0859603622303062	0.8514911890484026	0.0777228888229024	0.1021613493261689	0.0874615257175364
10.739999999999931	0.0339550739778217	0.0856794344810336	0.853879043795642	0.0775367327810131	0.1020915475748864	0.0874413114478149
10.74999999999993	0.033984095564573	0.0854001184776323	0.8562592182662854	0.0773492474232528	0.1020248145542502	0.0874335405722003
10.75999999999993	0.0340147815920711	0.0851226790674772	0.8586331546055499	0.0771606662670338	0.10196127554307	0.0874381018452821
10.76999999999993	0.034047075121294	0.0848473744098177	0.8610022053633549	0.0769712221462206	0.1019010430647552	0.0874548706115043
10.77999999999993	0.0340809189521715	0.0845744555203792	0.8633676280752363	0.0767811466809837	0.1018442167230634	0.0874837087267061
10.78999999999993	0.0341162556287537	0.0843041658385469	0.865730580298125	0.0765906697586134	0.1017908830877491	0.0875244645013636
10.79999999999993	0.0341530274408909	0.084036740818022	0.8680921151086909	0.0764000190269499	0.1017411156302785	0.0875769726671169
10.80999999999993	0.0341911764231207	0.0837724075417759	0.8704531770713791	0.0762094194018589	0.1016949747095207	0.0876410543680416
10.81999999999993	0.0342306443514134	0.0835113843621028	0.8728145986834502	0.0760190925899345	0.101652507607115	0.0877165171780294
10.829999999999929	0.0342713727384282	0.0832538805665348	0.875177097304788	0.0758292566273777	0.1016137486120938	0.0878031551455786
10.839999999999929	0.0343133028278958	0.0830000960703278	0.8775412725806178	0.0756401254357743	0.1015787191542312	0.0879007488671903
10.849999999999929	0.0343563755887727	0.0827502211361116	0.879907604365278	0.0754519083953294	0.1015474279854565	0.0880090655904222
10.859999999999928	0.0344005317098424	0.0825044361211499	0.8822764511545659	0.0752648099360264	0.1015198714084739	0.0881278593475096
10.869999999999928	0.0344457115954565	0.0822629112524884	0.8846480490328932	0.0750790291471104	0.1014960335514401	0.088256871120364
10.879999999999928	0.0344918553631514	0.0820258064300739	0.8870225111397305	0.0748947594052975	0.1014758866873221	0.0883958290377031
10.889999999999928	0.034538902843837	0.0817932710577349	0.889399827657748	0.0747121880221632	0.101459391596328	0.0885444486050422
10.899999999999928	0.0345867935852415	0.0815654439017042	0.89177986632272	0.0745314959112756	0.1014464979696238	0.0887024329681914
10.909999999999927	0.0346354668592487	0.0813424529761714	0.8941623734524632	0.0743528572757866	0.1014371448523398	0.0888694732107335
10.919999999999927	0.0346848616736984	0.0811244154552713	0.8965469754891054	0.0741764393172951	0.1014312611236427	0.0890452486857482
10.929999999999927	0.0347349167891712	0.0809114376109162	0.8989331810459087	0.0740024019668266	0.1014287660114274	0.0892294273818102
10.939999999999927	0.0347855707411871	0.0807036147760391	0.9013203834470622	0.0738308976387321	0.1014295696389572	0.0894216663231853
10.949999999999926	0.0348367618681707	0.0805010313329906	0.9037078637464504	0.073662071008192	0.1014335736005647	0.089621612004129
10.959999999999926	0.0348884283454276	0.0803037607269594	0.9060947942094087	0.0734960588128947	0.1014406715633452	0.0898289008572181
10.969999999999926	0.0349405082252801	0.0801118655043352	0.9084802422396798	0.0733329896792883	0.1014507498916268	0.0900431597556378
10.979999999999926	0.0349929394834138	0.0799253973758956	0.9108631747320132	0.0731729839736835	0.1014636882907964	0.0902640065492474
10.989999999999926	0.0350456600714164	0.0797443973047073	0.9132424628289004	0.0730161536783566	0.1014793604668541	0.0904910506341415
10.999999999999925	0.0350986079754451	0.0795688956186372	0.9156168870578268	0.0728626022926979	0.1014976347978038	0.090723893555302
11.009999999999925	0.0351517212809112	0.0793989121474028	0.9179851428231404	0.0727124247593367	0.1015183750127634	0.0909621296419229
11.019999999999925	0.0352049382430093	0.0792344563840384	0.920345846224689	0.0725657074150237	0.1015414408744694	0.0912053466749783
11.029999999999925	0.0352581973628511	0.0790755276706184	0.9226975401742752	0.0724225279658897	0.1015666888607254	0.0914531265865592
11.039999999999925	0.0353114374688957	0.078922115407969	0.9250387007810856	0.0722829554865378	0.1015939728402631	0.0917050461904116
11.049999999999924	0.0353645978032846	0.0787741992889921	0.927367743978274	0.0721470504423575	0.1016231447386143	0.0919606779429249
11.059999999999924	0.0354176181126521	0.0786317495550674	0.9296830323642896	0.0720148647344867	0.1016540551899399	0.092219590733619
11.069999999999924	0.0354704387429137	0.0784947272748458	0.9319828822339744	0.0718864417669338	0.101686554171328	0.0924813507039748
11.079999999999924	0.0355230007375045	0.0783630846446279	0.9342655707756438	0.0717618165354592	0.1017204916165981	0.0927455220932631
11.089999999999923	0.0355752459385007	0.0782367653093938	0.936529343410774	0.0716410157378313	0.1017557180069368	0.093011668109818
11.099999999999923	0.0356271170900757	0.0781157047034926	0.9387724212525248	0.071524057905028	0.1017920849357526	0.0932793518260268
11.109999999999923	0.0356785579437303	0.0779998304099285	0.9409930086586848	0.0714109535529237	0.1018294456451829	0.093548137095065
11.119999999999923	0.0357295133647748	0.0778890625371401	0.9431893008543712	0.0713017053539496	0.1018676555318435	0.0938175894871784
11.129999999999923	0.0357799294395499	0.0777833141121208	0.9453594915997762	0.0711963083281602	0.1019065726198078	0.0940872772430898
11.139999999999922	0.035829753582923	0.0776824914886398	0.947501780878048	0.0710947500530559	0.1019460579994312	0.0943567722419147
11.149999999999922	0.0358789346455949	0.0775864947691999	0.9496143825780684	0.0709970108913872	0.1019859762314213	0.094625650980814
11.159999999999922	0.0359274230207849	0.0774952182392277	0.9516955321466476	0.0709030642360505	0.1020261957163388	0.0948934955634247
11.169999999999922	0.0359751707498505	0.077408550811856	0.9537434941844104	0.0708128767710098	0.1020665890303729	0.0951598946939366
11.179999999999922	0.0360221316264341	0.0773263764815633	0.9557565699588404	0.0707264087470844	0.1021070332286802	0.0954244446734857
11.189999999999921	0.0360682612987289	0.077248574784847	0.9577331048065216	0.0706436142713203	0.1021474101178144	0.0956867503953754
11.199999999999921	0.0361135173694775	0.0771750212660971	0.959671495394998	0.0705644416086099	0.102187606498861	0.0959464263355509
11.209999999999921	0.0361578594933042	0.0771055879468335	0.9615701968131408	0.0704888334941901	0.1022275143828805	0.0962030975347253
11.21999999999992	0.0362012494709472	0.0770401437965511	0.963427729457502	0.0704167274556646	0.1022670311802234	0.0964564005685412
11.22999999999992	0.0362436513399628	0.0769785552034731	0.9652426856808114	0.0703480561432789	0.1023060598652524	0.0967059845020645
11.23999999999992	0.0362850314614674	0.0769206864435798	0.9670137361677212	0.0702827476672871	0.1023445091179433	0.0969515118248048
11.24999999999992	0.0363253586024712	0.0768664001463532	0.9687396360025868	0.0702207259413623	0.1023822934437077	0.0971926593622595
11.25999999999992	0.0363646040133736	0.0768155577557086	0.9704192303942644	0.0701619110310525	0.1024193332725827	0.0974291191597975
